%TF.GenerationSoftware,KiCad,Pcbnew,7.0.10-7.0.10~ubuntu20.04.1*%
%TF.CreationDate,2024-03-11T21:24:20+08:00*%
%TF.ProjectId,ESwitch,45537769-7463-4682-9e6b-696361645f70,rev?*%
%TF.SameCoordinates,Original*%
%TF.FileFunction,Legend,Top*%
%TF.FilePolarity,Positive*%
%FSLAX46Y46*%
G04 Gerber Fmt 4.6, Leading zero omitted, Abs format (unit mm)*
G04 Created by KiCad (PCBNEW 7.0.10-7.0.10~ubuntu20.04.1) date 2024-03-11 21:24:20*
%MOMM*%
%LPD*%
G01*
G04 APERTURE LIST*
G04 Aperture macros list*
%AMRoundRect*
0 Rectangle with rounded corners*
0 $1 Rounding radius*
0 $2 $3 $4 $5 $6 $7 $8 $9 X,Y pos of 4 corners*
0 Add a 4 corners polygon primitive as box body*
4,1,4,$2,$3,$4,$5,$6,$7,$8,$9,$2,$3,0*
0 Add four circle primitives for the rounded corners*
1,1,$1+$1,$2,$3*
1,1,$1+$1,$4,$5*
1,1,$1+$1,$6,$7*
1,1,$1+$1,$8,$9*
0 Add four rect primitives between the rounded corners*
20,1,$1+$1,$2,$3,$4,$5,0*
20,1,$1+$1,$4,$5,$6,$7,0*
20,1,$1+$1,$6,$7,$8,$9,0*
20,1,$1+$1,$8,$9,$2,$3,0*%
%AMFreePoly0*
4,1,15,0.305000,-0.510000,0.055000,-0.510000,0.055000,-4.010000,0.053536,-4.013536,0.050000,-4.015000,-3.860000,-4.015000,-3.863536,-4.013536,-3.865000,-4.010000,-3.865000,-0.200000,-3.863536,-0.196464,-3.860000,-0.195000,-0.305000,-0.195000,-0.305000,0.510000,0.305000,0.510000,0.305000,-0.510000,0.305000,-0.510000,$1*%
%AMFreePoly1*
4,1,19,0.550000,-0.750000,0.000000,-0.750000,0.000000,-0.744911,-0.071157,-0.744911,-0.207708,-0.704816,-0.327430,-0.627875,-0.420627,-0.520320,-0.479746,-0.390866,-0.500000,-0.250000,-0.500000,0.250000,-0.479746,0.390866,-0.420627,0.520320,-0.327430,0.627875,-0.207708,0.704816,-0.071157,0.744911,0.000000,0.744911,0.000000,0.750000,0.550000,0.750000,0.550000,-0.750000,0.550000,-0.750000,
$1*%
%AMFreePoly2*
4,1,19,0.000000,0.744911,0.071157,0.744911,0.207708,0.704816,0.327430,0.627875,0.420627,0.520320,0.479746,0.390866,0.500000,0.250000,0.500000,-0.250000,0.479746,-0.390866,0.420627,-0.520320,0.327430,-0.627875,0.207708,-0.704816,0.071157,-0.744911,0.000000,-0.744911,0.000000,-0.750000,-0.550000,-0.750000,-0.550000,0.750000,0.000000,0.750000,0.000000,0.744911,0.000000,0.744911,
$1*%
%AMFreePoly3*
4,1,19,0.500000,-0.750000,0.000000,-0.750000,0.000000,-0.744911,-0.071157,-0.744911,-0.207708,-0.704816,-0.327430,-0.627875,-0.420627,-0.520320,-0.479746,-0.390866,-0.500000,-0.250000,-0.500000,0.250000,-0.479746,0.390866,-0.420627,0.520320,-0.327430,0.627875,-0.207708,0.704816,-0.071157,0.744911,0.000000,0.744911,0.000000,0.750000,0.500000,0.750000,0.500000,-0.750000,0.500000,-0.750000,
$1*%
%AMFreePoly4*
4,1,19,0.000000,0.744911,0.071157,0.744911,0.207708,0.704816,0.327430,0.627875,0.420627,0.520320,0.479746,0.390866,0.500000,0.250000,0.500000,-0.250000,0.479746,-0.390866,0.420627,-0.520320,0.327430,-0.627875,0.207708,-0.704816,0.071157,-0.744911,0.000000,-0.744911,0.000000,-0.750000,-0.500000,-0.750000,-0.500000,0.750000,0.000000,0.750000,0.000000,0.744911,0.000000,0.744911,
$1*%
G04 Aperture macros list end*
%ADD10C,0.200000*%
%ADD11C,0.150000*%
%ADD12C,0.100000*%
%ADD13C,0.120000*%
%ADD14C,0.127000*%
%ADD15R,1.350000X1.350000*%
%ADD16O,1.350000X1.350000*%
%ADD17R,1.400000X0.300000*%
%ADD18R,1.270000X0.610000*%
%ADD19FreePoly0,90.000000*%
%ADD20R,1.020000X0.610000*%
%ADD21RoundRect,0.250000X0.262500X0.450000X-0.262500X0.450000X-0.262500X-0.450000X0.262500X-0.450000X0*%
%ADD22RoundRect,0.250000X-0.250000X-0.475000X0.250000X-0.475000X0.250000X0.475000X-0.250000X0.475000X0*%
%ADD23RoundRect,0.250000X0.250000X0.475000X-0.250000X0.475000X-0.250000X-0.475000X0.250000X-0.475000X0*%
%ADD24C,2.200000*%
%ADD25C,3.200000*%
%ADD26FreePoly1,90.000000*%
%ADD27R,1.500000X1.000000*%
%ADD28FreePoly2,90.000000*%
%ADD29FreePoly3,90.000000*%
%ADD30FreePoly4,90.000000*%
%ADD31RoundRect,0.250000X-0.262500X-0.450000X0.262500X-0.450000X0.262500X0.450000X-0.262500X0.450000X0*%
%ADD32C,5.120000*%
%ADD33RoundRect,0.102000X-2.458000X2.458000X-2.458000X-2.458000X2.458000X-2.458000X2.458000X2.458000X0*%
%ADD34O,2.804000X1.504000*%
%ADD35C,0.850000*%
%ADD36R,0.500000X1.000000*%
%ADD37R,0.800000X0.500000*%
%ADD38RoundRect,0.102000X2.458000X-2.458000X2.458000X2.458000X-2.458000X2.458000X-2.458000X-2.458000X0*%
G04 APERTURE END LIST*
D10*
X178560149Y-94617219D02*
X178750625Y-94617219D01*
X178750625Y-94617219D02*
X178845863Y-94664838D01*
X178845863Y-94664838D02*
X178941101Y-94760076D01*
X178941101Y-94760076D02*
X178988720Y-94950552D01*
X178988720Y-94950552D02*
X178988720Y-95283885D01*
X178988720Y-95283885D02*
X178941101Y-95474361D01*
X178941101Y-95474361D02*
X178845863Y-95569600D01*
X178845863Y-95569600D02*
X178750625Y-95617219D01*
X178750625Y-95617219D02*
X178560149Y-95617219D01*
X178560149Y-95617219D02*
X178464911Y-95569600D01*
X178464911Y-95569600D02*
X178369673Y-95474361D01*
X178369673Y-95474361D02*
X178322054Y-95283885D01*
X178322054Y-95283885D02*
X178322054Y-94950552D01*
X178322054Y-94950552D02*
X178369673Y-94760076D01*
X178369673Y-94760076D02*
X178464911Y-94664838D01*
X178464911Y-94664838D02*
X178560149Y-94617219D01*
X179417292Y-95617219D02*
X179417292Y-94617219D01*
X179417292Y-94617219D02*
X179988720Y-95617219D01*
X179988720Y-95617219D02*
X179988720Y-94617219D01*
D11*
X186866666Y-94654819D02*
X186866666Y-95369104D01*
X186866666Y-95369104D02*
X186819047Y-95511961D01*
X186819047Y-95511961D02*
X186723809Y-95607200D01*
X186723809Y-95607200D02*
X186580952Y-95654819D01*
X186580952Y-95654819D02*
X186485714Y-95654819D01*
X187247619Y-94654819D02*
X187866666Y-94654819D01*
X187866666Y-94654819D02*
X187533333Y-95035771D01*
X187533333Y-95035771D02*
X187676190Y-95035771D01*
X187676190Y-95035771D02*
X187771428Y-95083390D01*
X187771428Y-95083390D02*
X187819047Y-95131009D01*
X187819047Y-95131009D02*
X187866666Y-95226247D01*
X187866666Y-95226247D02*
X187866666Y-95464342D01*
X187866666Y-95464342D02*
X187819047Y-95559580D01*
X187819047Y-95559580D02*
X187771428Y-95607200D01*
X187771428Y-95607200D02*
X187676190Y-95654819D01*
X187676190Y-95654819D02*
X187390476Y-95654819D01*
X187390476Y-95654819D02*
X187295238Y-95607200D01*
X187295238Y-95607200D02*
X187247619Y-95559580D01*
X196638095Y-89054819D02*
X196638095Y-89864342D01*
X196638095Y-89864342D02*
X196685714Y-89959580D01*
X196685714Y-89959580D02*
X196733333Y-90007200D01*
X196733333Y-90007200D02*
X196828571Y-90054819D01*
X196828571Y-90054819D02*
X197019047Y-90054819D01*
X197019047Y-90054819D02*
X197114285Y-90007200D01*
X197114285Y-90007200D02*
X197161904Y-89959580D01*
X197161904Y-89959580D02*
X197209523Y-89864342D01*
X197209523Y-89864342D02*
X197209523Y-89054819D01*
X198209523Y-90054819D02*
X197638095Y-90054819D01*
X197923809Y-90054819D02*
X197923809Y-89054819D01*
X197923809Y-89054819D02*
X197828571Y-89197676D01*
X197828571Y-89197676D02*
X197733333Y-89292914D01*
X197733333Y-89292914D02*
X197638095Y-89340533D01*
D12*
X189302657Y-75095238D02*
X189255038Y-75190476D01*
X189255038Y-75190476D02*
X189159800Y-75285714D01*
X189159800Y-75285714D02*
X189016942Y-75428571D01*
X189016942Y-75428571D02*
X188969323Y-75523809D01*
X188969323Y-75523809D02*
X188969323Y-75619047D01*
X189207419Y-75571428D02*
X189159800Y-75666666D01*
X189159800Y-75666666D02*
X189064561Y-75761904D01*
X189064561Y-75761904D02*
X188874085Y-75809523D01*
X188874085Y-75809523D02*
X188540752Y-75809523D01*
X188540752Y-75809523D02*
X188350276Y-75761904D01*
X188350276Y-75761904D02*
X188255038Y-75666666D01*
X188255038Y-75666666D02*
X188207419Y-75571428D01*
X188207419Y-75571428D02*
X188207419Y-75380952D01*
X188207419Y-75380952D02*
X188255038Y-75285714D01*
X188255038Y-75285714D02*
X188350276Y-75190476D01*
X188350276Y-75190476D02*
X188540752Y-75142857D01*
X188540752Y-75142857D02*
X188874085Y-75142857D01*
X188874085Y-75142857D02*
X189064561Y-75190476D01*
X189064561Y-75190476D02*
X189159800Y-75285714D01*
X189159800Y-75285714D02*
X189207419Y-75380952D01*
X189207419Y-75380952D02*
X189207419Y-75571428D01*
X189207419Y-74190476D02*
X189207419Y-74761904D01*
X189207419Y-74476190D02*
X188207419Y-74476190D01*
X188207419Y-74476190D02*
X188350276Y-74571428D01*
X188350276Y-74571428D02*
X188445514Y-74666666D01*
X188445514Y-74666666D02*
X188493133Y-74761904D01*
D11*
X205833333Y-95454819D02*
X205500000Y-94978628D01*
X205261905Y-95454819D02*
X205261905Y-94454819D01*
X205261905Y-94454819D02*
X205642857Y-94454819D01*
X205642857Y-94454819D02*
X205738095Y-94502438D01*
X205738095Y-94502438D02*
X205785714Y-94550057D01*
X205785714Y-94550057D02*
X205833333Y-94645295D01*
X205833333Y-94645295D02*
X205833333Y-94788152D01*
X205833333Y-94788152D02*
X205785714Y-94883390D01*
X205785714Y-94883390D02*
X205738095Y-94931009D01*
X205738095Y-94931009D02*
X205642857Y-94978628D01*
X205642857Y-94978628D02*
X205261905Y-94978628D01*
X206690476Y-94454819D02*
X206500000Y-94454819D01*
X206500000Y-94454819D02*
X206404762Y-94502438D01*
X206404762Y-94502438D02*
X206357143Y-94550057D01*
X206357143Y-94550057D02*
X206261905Y-94692914D01*
X206261905Y-94692914D02*
X206214286Y-94883390D01*
X206214286Y-94883390D02*
X206214286Y-95264342D01*
X206214286Y-95264342D02*
X206261905Y-95359580D01*
X206261905Y-95359580D02*
X206309524Y-95407200D01*
X206309524Y-95407200D02*
X206404762Y-95454819D01*
X206404762Y-95454819D02*
X206595238Y-95454819D01*
X206595238Y-95454819D02*
X206690476Y-95407200D01*
X206690476Y-95407200D02*
X206738095Y-95359580D01*
X206738095Y-95359580D02*
X206785714Y-95264342D01*
X206785714Y-95264342D02*
X206785714Y-95026247D01*
X206785714Y-95026247D02*
X206738095Y-94931009D01*
X206738095Y-94931009D02*
X206690476Y-94883390D01*
X206690476Y-94883390D02*
X206595238Y-94835771D01*
X206595238Y-94835771D02*
X206404762Y-94835771D01*
X206404762Y-94835771D02*
X206309524Y-94883390D01*
X206309524Y-94883390D02*
X206261905Y-94931009D01*
X206261905Y-94931009D02*
X206214286Y-95026247D01*
X196233333Y-94759580D02*
X196185714Y-94807200D01*
X196185714Y-94807200D02*
X196042857Y-94854819D01*
X196042857Y-94854819D02*
X195947619Y-94854819D01*
X195947619Y-94854819D02*
X195804762Y-94807200D01*
X195804762Y-94807200D02*
X195709524Y-94711961D01*
X195709524Y-94711961D02*
X195661905Y-94616723D01*
X195661905Y-94616723D02*
X195614286Y-94426247D01*
X195614286Y-94426247D02*
X195614286Y-94283390D01*
X195614286Y-94283390D02*
X195661905Y-94092914D01*
X195661905Y-94092914D02*
X195709524Y-93997676D01*
X195709524Y-93997676D02*
X195804762Y-93902438D01*
X195804762Y-93902438D02*
X195947619Y-93854819D01*
X195947619Y-93854819D02*
X196042857Y-93854819D01*
X196042857Y-93854819D02*
X196185714Y-93902438D01*
X196185714Y-93902438D02*
X196233333Y-93950057D01*
X197185714Y-94854819D02*
X196614286Y-94854819D01*
X196900000Y-94854819D02*
X196900000Y-93854819D01*
X196900000Y-93854819D02*
X196804762Y-93997676D01*
X196804762Y-93997676D02*
X196709524Y-94092914D01*
X196709524Y-94092914D02*
X196614286Y-94140533D01*
X189633333Y-89559580D02*
X189585714Y-89607200D01*
X189585714Y-89607200D02*
X189442857Y-89654819D01*
X189442857Y-89654819D02*
X189347619Y-89654819D01*
X189347619Y-89654819D02*
X189204762Y-89607200D01*
X189204762Y-89607200D02*
X189109524Y-89511961D01*
X189109524Y-89511961D02*
X189061905Y-89416723D01*
X189061905Y-89416723D02*
X189014286Y-89226247D01*
X189014286Y-89226247D02*
X189014286Y-89083390D01*
X189014286Y-89083390D02*
X189061905Y-88892914D01*
X189061905Y-88892914D02*
X189109524Y-88797676D01*
X189109524Y-88797676D02*
X189204762Y-88702438D01*
X189204762Y-88702438D02*
X189347619Y-88654819D01*
X189347619Y-88654819D02*
X189442857Y-88654819D01*
X189442857Y-88654819D02*
X189585714Y-88702438D01*
X189585714Y-88702438D02*
X189633333Y-88750057D01*
X190014286Y-88750057D02*
X190061905Y-88702438D01*
X190061905Y-88702438D02*
X190157143Y-88654819D01*
X190157143Y-88654819D02*
X190395238Y-88654819D01*
X190395238Y-88654819D02*
X190490476Y-88702438D01*
X190490476Y-88702438D02*
X190538095Y-88750057D01*
X190538095Y-88750057D02*
X190585714Y-88845295D01*
X190585714Y-88845295D02*
X190585714Y-88940533D01*
X190585714Y-88940533D02*
X190538095Y-89083390D01*
X190538095Y-89083390D02*
X189966667Y-89654819D01*
X189966667Y-89654819D02*
X190585714Y-89654819D01*
X186166666Y-84054819D02*
X186166666Y-84769104D01*
X186166666Y-84769104D02*
X186119047Y-84911961D01*
X186119047Y-84911961D02*
X186023809Y-85007200D01*
X186023809Y-85007200D02*
X185880952Y-85054819D01*
X185880952Y-85054819D02*
X185785714Y-85054819D01*
X186642857Y-85054819D02*
X186642857Y-84054819D01*
X186642857Y-84054819D02*
X187023809Y-84054819D01*
X187023809Y-84054819D02*
X187119047Y-84102438D01*
X187119047Y-84102438D02*
X187166666Y-84150057D01*
X187166666Y-84150057D02*
X187214285Y-84245295D01*
X187214285Y-84245295D02*
X187214285Y-84388152D01*
X187214285Y-84388152D02*
X187166666Y-84483390D01*
X187166666Y-84483390D02*
X187119047Y-84531009D01*
X187119047Y-84531009D02*
X187023809Y-84578628D01*
X187023809Y-84578628D02*
X186642857Y-84578628D01*
X187595238Y-84150057D02*
X187642857Y-84102438D01*
X187642857Y-84102438D02*
X187738095Y-84054819D01*
X187738095Y-84054819D02*
X187976190Y-84054819D01*
X187976190Y-84054819D02*
X188071428Y-84102438D01*
X188071428Y-84102438D02*
X188119047Y-84150057D01*
X188119047Y-84150057D02*
X188166666Y-84245295D01*
X188166666Y-84245295D02*
X188166666Y-84340533D01*
X188166666Y-84340533D02*
X188119047Y-84483390D01*
X188119047Y-84483390D02*
X187547619Y-85054819D01*
X187547619Y-85054819D02*
X188166666Y-85054819D01*
X190366666Y-94654819D02*
X190366666Y-95369104D01*
X190366666Y-95369104D02*
X190319047Y-95511961D01*
X190319047Y-95511961D02*
X190223809Y-95607200D01*
X190223809Y-95607200D02*
X190080952Y-95654819D01*
X190080952Y-95654819D02*
X189985714Y-95654819D01*
X190842857Y-95654819D02*
X190842857Y-94654819D01*
X190842857Y-94654819D02*
X191223809Y-94654819D01*
X191223809Y-94654819D02*
X191319047Y-94702438D01*
X191319047Y-94702438D02*
X191366666Y-94750057D01*
X191366666Y-94750057D02*
X191414285Y-94845295D01*
X191414285Y-94845295D02*
X191414285Y-94988152D01*
X191414285Y-94988152D02*
X191366666Y-95083390D01*
X191366666Y-95083390D02*
X191319047Y-95131009D01*
X191319047Y-95131009D02*
X191223809Y-95178628D01*
X191223809Y-95178628D02*
X190842857Y-95178628D01*
X192366666Y-95654819D02*
X191795238Y-95654819D01*
X192080952Y-95654819D02*
X192080952Y-94654819D01*
X192080952Y-94654819D02*
X191985714Y-94797676D01*
X191985714Y-94797676D02*
X191890476Y-94892914D01*
X191890476Y-94892914D02*
X191795238Y-94940533D01*
X205833333Y-93254819D02*
X205500000Y-92778628D01*
X205261905Y-93254819D02*
X205261905Y-92254819D01*
X205261905Y-92254819D02*
X205642857Y-92254819D01*
X205642857Y-92254819D02*
X205738095Y-92302438D01*
X205738095Y-92302438D02*
X205785714Y-92350057D01*
X205785714Y-92350057D02*
X205833333Y-92445295D01*
X205833333Y-92445295D02*
X205833333Y-92588152D01*
X205833333Y-92588152D02*
X205785714Y-92683390D01*
X205785714Y-92683390D02*
X205738095Y-92731009D01*
X205738095Y-92731009D02*
X205642857Y-92778628D01*
X205642857Y-92778628D02*
X205261905Y-92778628D01*
X206785714Y-93254819D02*
X206214286Y-93254819D01*
X206500000Y-93254819D02*
X206500000Y-92254819D01*
X206500000Y-92254819D02*
X206404762Y-92397676D01*
X206404762Y-92397676D02*
X206309524Y-92492914D01*
X206309524Y-92492914D02*
X206214286Y-92540533D01*
X189433333Y-91054819D02*
X189100000Y-90578628D01*
X188861905Y-91054819D02*
X188861905Y-90054819D01*
X188861905Y-90054819D02*
X189242857Y-90054819D01*
X189242857Y-90054819D02*
X189338095Y-90102438D01*
X189338095Y-90102438D02*
X189385714Y-90150057D01*
X189385714Y-90150057D02*
X189433333Y-90245295D01*
X189433333Y-90245295D02*
X189433333Y-90388152D01*
X189433333Y-90388152D02*
X189385714Y-90483390D01*
X189385714Y-90483390D02*
X189338095Y-90531009D01*
X189338095Y-90531009D02*
X189242857Y-90578628D01*
X189242857Y-90578628D02*
X188861905Y-90578628D01*
X189766667Y-90054819D02*
X190433333Y-90054819D01*
X190433333Y-90054819D02*
X190004762Y-91054819D01*
X205833333Y-87254819D02*
X205500000Y-86778628D01*
X205261905Y-87254819D02*
X205261905Y-86254819D01*
X205261905Y-86254819D02*
X205642857Y-86254819D01*
X205642857Y-86254819D02*
X205738095Y-86302438D01*
X205738095Y-86302438D02*
X205785714Y-86350057D01*
X205785714Y-86350057D02*
X205833333Y-86445295D01*
X205833333Y-86445295D02*
X205833333Y-86588152D01*
X205833333Y-86588152D02*
X205785714Y-86683390D01*
X205785714Y-86683390D02*
X205738095Y-86731009D01*
X205738095Y-86731009D02*
X205642857Y-86778628D01*
X205642857Y-86778628D02*
X205261905Y-86778628D01*
X206166667Y-86254819D02*
X206785714Y-86254819D01*
X206785714Y-86254819D02*
X206452381Y-86635771D01*
X206452381Y-86635771D02*
X206595238Y-86635771D01*
X206595238Y-86635771D02*
X206690476Y-86683390D01*
X206690476Y-86683390D02*
X206738095Y-86731009D01*
X206738095Y-86731009D02*
X206785714Y-86826247D01*
X206785714Y-86826247D02*
X206785714Y-87064342D01*
X206785714Y-87064342D02*
X206738095Y-87159580D01*
X206738095Y-87159580D02*
X206690476Y-87207200D01*
X206690476Y-87207200D02*
X206595238Y-87254819D01*
X206595238Y-87254819D02*
X206309524Y-87254819D01*
X206309524Y-87254819D02*
X206214286Y-87207200D01*
X206214286Y-87207200D02*
X206166667Y-87159580D01*
X206833333Y-91254819D02*
X206500000Y-90778628D01*
X206261905Y-91254819D02*
X206261905Y-90254819D01*
X206261905Y-90254819D02*
X206642857Y-90254819D01*
X206642857Y-90254819D02*
X206738095Y-90302438D01*
X206738095Y-90302438D02*
X206785714Y-90350057D01*
X206785714Y-90350057D02*
X206833333Y-90445295D01*
X206833333Y-90445295D02*
X206833333Y-90588152D01*
X206833333Y-90588152D02*
X206785714Y-90683390D01*
X206785714Y-90683390D02*
X206738095Y-90731009D01*
X206738095Y-90731009D02*
X206642857Y-90778628D01*
X206642857Y-90778628D02*
X206261905Y-90778628D01*
X207214286Y-90350057D02*
X207261905Y-90302438D01*
X207261905Y-90302438D02*
X207357143Y-90254819D01*
X207357143Y-90254819D02*
X207595238Y-90254819D01*
X207595238Y-90254819D02*
X207690476Y-90302438D01*
X207690476Y-90302438D02*
X207738095Y-90350057D01*
X207738095Y-90350057D02*
X207785714Y-90445295D01*
X207785714Y-90445295D02*
X207785714Y-90540533D01*
X207785714Y-90540533D02*
X207738095Y-90683390D01*
X207738095Y-90683390D02*
X207166667Y-91254819D01*
X207166667Y-91254819D02*
X207785714Y-91254819D01*
X160584819Y-65724833D02*
X161299104Y-65724833D01*
X161299104Y-65724833D02*
X161441961Y-65772452D01*
X161441961Y-65772452D02*
X161537200Y-65867690D01*
X161537200Y-65867690D02*
X161584819Y-66010547D01*
X161584819Y-66010547D02*
X161584819Y-66105785D01*
X161584819Y-64724833D02*
X161584819Y-65296261D01*
X161584819Y-65010547D02*
X160584819Y-65010547D01*
X160584819Y-65010547D02*
X160727676Y-65105785D01*
X160727676Y-65105785D02*
X160822914Y-65201023D01*
X160822914Y-65201023D02*
X160870533Y-65296261D01*
X179666666Y-85654819D02*
X179666666Y-86369104D01*
X179666666Y-86369104D02*
X179619047Y-86511961D01*
X179619047Y-86511961D02*
X179523809Y-86607200D01*
X179523809Y-86607200D02*
X179380952Y-86654819D01*
X179380952Y-86654819D02*
X179285714Y-86654819D01*
X180571428Y-85988152D02*
X180571428Y-86654819D01*
X180333333Y-85607200D02*
X180095238Y-86321485D01*
X180095238Y-86321485D02*
X180714285Y-86321485D01*
X226464819Y-81821833D02*
X227179104Y-81821833D01*
X227179104Y-81821833D02*
X227321961Y-81869452D01*
X227321961Y-81869452D02*
X227417200Y-81964690D01*
X227417200Y-81964690D02*
X227464819Y-82107547D01*
X227464819Y-82107547D02*
X227464819Y-82202785D01*
X226560057Y-81393261D02*
X226512438Y-81345642D01*
X226512438Y-81345642D02*
X226464819Y-81250404D01*
X226464819Y-81250404D02*
X226464819Y-81012309D01*
X226464819Y-81012309D02*
X226512438Y-80917071D01*
X226512438Y-80917071D02*
X226560057Y-80869452D01*
X226560057Y-80869452D02*
X226655295Y-80821833D01*
X226655295Y-80821833D02*
X226750533Y-80821833D01*
X226750533Y-80821833D02*
X226893390Y-80869452D01*
X226893390Y-80869452D02*
X227464819Y-81440880D01*
X227464819Y-81440880D02*
X227464819Y-80821833D01*
X206833333Y-89254819D02*
X206500000Y-88778628D01*
X206261905Y-89254819D02*
X206261905Y-88254819D01*
X206261905Y-88254819D02*
X206642857Y-88254819D01*
X206642857Y-88254819D02*
X206738095Y-88302438D01*
X206738095Y-88302438D02*
X206785714Y-88350057D01*
X206785714Y-88350057D02*
X206833333Y-88445295D01*
X206833333Y-88445295D02*
X206833333Y-88588152D01*
X206833333Y-88588152D02*
X206785714Y-88683390D01*
X206785714Y-88683390D02*
X206738095Y-88731009D01*
X206738095Y-88731009D02*
X206642857Y-88778628D01*
X206642857Y-88778628D02*
X206261905Y-88778628D01*
X207690476Y-88588152D02*
X207690476Y-89254819D01*
X207452381Y-88207200D02*
X207214286Y-88921485D01*
X207214286Y-88921485D02*
X207833333Y-88921485D01*
D13*
%TO.C,J3*%
X190060000Y-95460000D02*
X189000000Y-95460000D01*
X190060000Y-94400000D02*
X190060000Y-95460000D01*
X190060000Y-93400000D02*
X190060000Y-91340000D01*
X190060000Y-93400000D02*
X187940000Y-93400000D01*
X190060000Y-91340000D02*
X187940000Y-91340000D01*
X187940000Y-93400000D02*
X187940000Y-91340000D01*
D11*
%TO.C,U1*%
X199875000Y-93675000D02*
X199875000Y-93450000D01*
X199875000Y-93675000D02*
X196525000Y-93675000D01*
X199875000Y-90550000D02*
X199875000Y-90325000D01*
X199875000Y-90325000D02*
X196525000Y-90325000D01*
X196525000Y-93675000D02*
X196525000Y-93450000D01*
X196525000Y-90325000D02*
X196525000Y-90550000D01*
D13*
X200727500Y-93780000D02*
X200247500Y-93780000D01*
X200487500Y-93450000D01*
X200727500Y-93780000D01*
G36*
X200727500Y-93780000D02*
G01*
X200247500Y-93780000D01*
X200487500Y-93450000D01*
X200727500Y-93780000D01*
G37*
D12*
%TO.C,Q1*%
X189344000Y-81413000D02*
X196329000Y-81413000D01*
X196329000Y-81413000D02*
X196329000Y-76587000D01*
X196329000Y-76587000D02*
X189344000Y-76587000D01*
X189344000Y-76587000D02*
X189344000Y-81413000D01*
D13*
%TO.C,R6*%
X203627064Y-95735000D02*
X203172936Y-95735000D01*
X203627064Y-94265000D02*
X203172936Y-94265000D01*
%TO.C,C1*%
X198538748Y-94265000D02*
X199061252Y-94265000D01*
X198538748Y-95735000D02*
X199061252Y-95735000D01*
%TO.C,C2*%
X192661252Y-89935000D02*
X192138748Y-89935000D01*
X192661252Y-88465000D02*
X192138748Y-88465000D01*
%TO.C,JP2*%
X187300000Y-89650000D02*
X186700000Y-89650000D01*
X188500000Y-89100000D02*
X188500000Y-88500000D01*
X186000000Y-89000000D02*
X186000000Y-86200000D01*
X188200000Y-88800000D02*
X188500000Y-89100000D01*
X188200000Y-88800000D02*
X188500000Y-88500000D01*
X188000000Y-86200000D02*
X188000000Y-89000000D01*
X186700000Y-85550000D02*
X187300000Y-85550000D01*
X186000000Y-88950000D02*
G75*
G03*
X186700000Y-89650000I699999J-1D01*
G01*
X187300000Y-89650000D02*
G75*
G03*
X188000000Y-88950000I1J699999D01*
G01*
X186700000Y-85550000D02*
G75*
G03*
X186000000Y-86250000I0J-700000D01*
G01*
X188000000Y-86250000D02*
G75*
G03*
X187300000Y-85550000I-700000J0D01*
G01*
%TO.C,JP1*%
X193700000Y-95400000D02*
X193100000Y-95400000D01*
X192400000Y-94700000D02*
X192400000Y-93300000D01*
X194400000Y-93300000D02*
X194400000Y-94700000D01*
X193100000Y-92600000D02*
X193700000Y-92600000D01*
X192400000Y-94700000D02*
G75*
G03*
X193100000Y-95400000I699999J-1D01*
G01*
X193700000Y-95400000D02*
G75*
G03*
X194400000Y-94700000I1J699999D01*
G01*
X193100000Y-92600000D02*
G75*
G03*
X192400000Y-93300000I0J-700000D01*
G01*
X194400000Y-93300000D02*
G75*
G03*
X193700000Y-92600000I-700000J0D01*
G01*
%TO.C,R1*%
X203627064Y-93535000D02*
X203172936Y-93535000D01*
X203627064Y-92065000D02*
X203172936Y-92065000D01*
%TO.C,R7*%
X192172936Y-90465000D02*
X192627064Y-90465000D01*
X192172936Y-91935000D02*
X192627064Y-91935000D01*
%TO.C,R3*%
X203627064Y-87535000D02*
X203172936Y-87535000D01*
X203627064Y-86065000D02*
X203172936Y-86065000D01*
%TO.C,R2*%
X203172936Y-90065000D02*
X203627064Y-90065000D01*
X203172936Y-91535000D02*
X203627064Y-91535000D01*
D14*
%TO.C,J1*%
X181350000Y-62300000D02*
X181350000Y-61300000D01*
X184200000Y-63150000D02*
X174220000Y-63150000D01*
X184200000Y-63150000D02*
X184200000Y-65322000D01*
X158800000Y-63150000D02*
X170980000Y-63150000D01*
X184200000Y-76222000D02*
X184200000Y-70878000D01*
X184200000Y-81778000D02*
X184200000Y-83950000D01*
X184200000Y-83950000D02*
X174220000Y-83950000D01*
X170980000Y-83950000D02*
X158800000Y-83950000D01*
X158800000Y-83950000D02*
X158800000Y-63150000D01*
X181350000Y-84800000D02*
X181350000Y-85800000D01*
X180850000Y-85300000D02*
X181850000Y-85300000D01*
D10*
%TO.C,SW1*%
X179167000Y-90664000D02*
X179167000Y-90664000D01*
X179167000Y-90664000D02*
X179167000Y-90664000D01*
X179267000Y-90664000D02*
X179267000Y-90664000D01*
D12*
X179800000Y-92700000D02*
X179800000Y-92700000D01*
X179800000Y-92700000D02*
X179800000Y-93200000D01*
X179800000Y-93200000D02*
X179800000Y-92700000D01*
X179800000Y-93200000D02*
X179800000Y-93200000D01*
X180450000Y-94300000D02*
X180450000Y-94300000D01*
X180450000Y-94300000D02*
X185450000Y-94300000D01*
X181700000Y-91600000D02*
X181700000Y-91600000D01*
X181700000Y-91600000D02*
X182700000Y-91600000D01*
X182700000Y-91600000D02*
X181700000Y-91600000D01*
X182700000Y-91600000D02*
X182700000Y-91600000D01*
X185450000Y-94300000D02*
X180450000Y-94300000D01*
X185450000Y-94300000D02*
X185450000Y-94300000D01*
X186100000Y-92700000D02*
X186100000Y-92700000D01*
X186100000Y-92700000D02*
X186100000Y-93200000D01*
X186100000Y-93200000D02*
X186100000Y-92700000D01*
X186100000Y-93200000D02*
X186100000Y-93200000D01*
X183458000Y-94347000D02*
X184093000Y-94347000D01*
X184093000Y-94347000D02*
X184093000Y-95871000D01*
X184093000Y-95871000D02*
X183458000Y-95871000D01*
X183458000Y-95871000D02*
X183458000Y-94347000D01*
D10*
X179267000Y-90664000D02*
G75*
G03*
X179167000Y-90664000I-50000J0D01*
G01*
X179167000Y-90664000D02*
G75*
G03*
X179267000Y-90664000I50000J0D01*
G01*
X179167000Y-90664000D02*
G75*
G03*
X179267000Y-90664000I50000J0D01*
G01*
D13*
%TO.C,J4*%
X181200000Y-89460000D02*
X185260000Y-89460000D01*
X181200000Y-89460000D02*
X181200000Y-87340000D01*
X185260000Y-89460000D02*
X185260000Y-87340000D01*
X179140000Y-88400000D02*
X179140000Y-87340000D01*
X179140000Y-87340000D02*
X180200000Y-87340000D01*
X181200000Y-87340000D02*
X185260000Y-87340000D01*
D14*
%TO.C,J2*%
X204500000Y-85300000D02*
X203500000Y-85300000D01*
X204000000Y-84800000D02*
X204000000Y-85800000D01*
X201400000Y-83950000D02*
X212100000Y-83950000D01*
X214850000Y-83950000D02*
X228500000Y-83950000D01*
X228500000Y-83950000D02*
X228500000Y-63150000D01*
X201400000Y-81800000D02*
X201400000Y-83950000D01*
X201400000Y-76150000D02*
X201400000Y-70950000D01*
X201400000Y-63150000D02*
X201400000Y-65300000D01*
X212100000Y-63150000D02*
X201400000Y-63150000D01*
X228500000Y-63150000D02*
X214850000Y-63150000D01*
X204000000Y-62300000D02*
X204000000Y-61300000D01*
D13*
%TO.C,R4*%
X203172936Y-88065000D02*
X203627064Y-88065000D01*
X203172936Y-89535000D02*
X203627064Y-89535000D01*
%TD*%
%LPC*%
D11*
X190500000Y-81750000D02*
X178750000Y-81750000D01*
X178750000Y-76250000D01*
X190500000Y-76250000D01*
X190500000Y-81750000D01*
G36*
X190500000Y-81750000D02*
G01*
X178750000Y-81750000D01*
X178750000Y-76250000D01*
X190500000Y-76250000D01*
X190500000Y-81750000D01*
G37*
X206750000Y-81750000D02*
X194750000Y-81750000D01*
X194750000Y-77750000D01*
X196500000Y-77750000D01*
X197750000Y-76250000D01*
X206750000Y-76250000D01*
X206750000Y-81750000D01*
G36*
X206750000Y-81750000D02*
G01*
X194750000Y-81750000D01*
X194750000Y-77750000D01*
X196500000Y-77750000D01*
X197750000Y-76250000D01*
X206750000Y-76250000D01*
X206750000Y-81750000D01*
G37*
X206750000Y-70750000D02*
X178750000Y-70750000D01*
X178750000Y-65500000D01*
X206750000Y-65500000D01*
X206750000Y-70750000D01*
G36*
X206750000Y-70750000D02*
G01*
X178750000Y-70750000D01*
X178750000Y-65500000D01*
X206750000Y-65500000D01*
X206750000Y-70750000D01*
G37*
D15*
%TO.C,J3*%
X189000000Y-94400000D03*
D16*
X189000000Y-92400000D03*
%TD*%
D17*
%TO.C,U1*%
X200400000Y-93000000D03*
X200400000Y-92500000D03*
X200400000Y-92000000D03*
X200400000Y-91500000D03*
X200400000Y-91000000D03*
X196000000Y-91000000D03*
X196000000Y-91500000D03*
X196000000Y-92000000D03*
X196000000Y-92500000D03*
X196000000Y-93000000D03*
%TD*%
D18*
%TO.C,Q1*%
X195498000Y-80905000D03*
X195498000Y-79635000D03*
X195498000Y-78365000D03*
X195498000Y-77095000D03*
D19*
X190033000Y-77095000D03*
D20*
X190033000Y-78365000D03*
X190033000Y-79635000D03*
X190033000Y-80905000D03*
%TD*%
D21*
%TO.C,R6*%
X204312500Y-95000000D03*
X202487500Y-95000000D03*
%TD*%
D22*
%TO.C,C1*%
X197850000Y-95000000D03*
X199750000Y-95000000D03*
%TD*%
D23*
%TO.C,C2*%
X193350000Y-89200000D03*
X191450000Y-89200000D03*
%TD*%
D24*
%TO.C,REF\u002A\u002A*%
X192250000Y-84250000D03*
%TD*%
D25*
%TO.C,REF\u002A\u002A*%
X174500000Y-92000000D03*
%TD*%
D26*
%TO.C,JP2*%
X187000000Y-88900000D03*
D27*
X187000000Y-87600000D03*
D28*
X187000000Y-86300000D03*
%TD*%
D25*
%TO.C,REF\u002A\u002A*%
X211500000Y-92000000D03*
%TD*%
D29*
%TO.C,JP1*%
X193400000Y-94650000D03*
D30*
X193400000Y-93350000D03*
%TD*%
D25*
%TO.C,REF\u002A\u002A*%
X211500000Y-55000000D03*
%TD*%
D24*
%TO.C,REF\u002A\u002A*%
X192250000Y-73500000D03*
%TD*%
D21*
%TO.C,R1*%
X204312500Y-92800000D03*
X202487500Y-92800000D03*
%TD*%
D31*
%TO.C,R7*%
X191487500Y-91200000D03*
X193312500Y-91200000D03*
%TD*%
D21*
%TO.C,R3*%
X204312500Y-86800000D03*
X202487500Y-86800000D03*
%TD*%
D31*
%TO.C,R2*%
X202487500Y-90800000D03*
X204312500Y-90800000D03*
%TD*%
D32*
%TO.C,J1*%
X181500000Y-68100000D03*
D33*
X181500000Y-79000000D03*
D34*
X172600000Y-83000000D03*
X172600000Y-64100000D03*
%TD*%
D25*
%TO.C,REF\u002A\u002A*%
X174500000Y-55000000D03*
%TD*%
D35*
%TO.C,SW1*%
X181450000Y-92950000D03*
X184450000Y-92950000D03*
D36*
X180700000Y-91100000D03*
X183700000Y-91100000D03*
X185200000Y-91100000D03*
D37*
X179500000Y-91900000D03*
X179500000Y-94000000D03*
X186400000Y-91900000D03*
X186400000Y-94000000D03*
%TD*%
D15*
%TO.C,J4*%
X180200000Y-88400000D03*
D16*
X182200000Y-88400000D03*
X184200000Y-88400000D03*
%TD*%
D32*
%TO.C,J2*%
X204100000Y-68100000D03*
D38*
X204100000Y-79000000D03*
D34*
X213500000Y-83000000D03*
X213500000Y-64100000D03*
%TD*%
D31*
%TO.C,R4*%
X202487500Y-88800000D03*
X204312500Y-88800000D03*
%TD*%
%LPD*%
M02*
