M48
; DRILL file {KiCad 7.0.10-7.0.10~ubuntu20.04.1} date Mon 04 Mar 2024 09:10:09 CST
; FORMAT={-:-/ absolute / metric / decimal}
; #@! TF.CreationDate,2024-03-04T09:10:09+08:00
; #@! TF.GenerationSoftware,Kicad,Pcbnew,7.0.10-7.0.10~ubuntu20.04.1
; #@! TF.FileFunction,Plated,1,2,PTH
FMAT,2
METRIC
; #@! TA.AperFunction,Plated,PTH,ViaDrill
T1C0.300
; #@! TA.AperFunction,Plated,PTH,ViaDrill
T2C0.400
; #@! TA.AperFunction,Plated,PTH,ComponentDrill
T3C0.600
; #@! TA.AperFunction,Plated,PTH,ComponentDrill
T4C0.800
; #@! TA.AperFunction,Plated,PTH,ComponentDrill
T5C3.900
%
G90
G05
T1
X191.0Y-77.8
X191.0Y-78.6
X191.0Y-79.4
X191.0Y-80.2
X191.8Y-77.8
X191.8Y-78.6
X191.8Y-79.4
X191.8Y-80.2
X192.6Y-77.8
X192.6Y-78.6
X192.6Y-79.4
X192.6Y-80.2
X193.4Y-77.8
X193.4Y-78.6
X193.4Y-79.4
X193.4Y-80.2
T2
X179.5Y-93.0
X185.25Y-94.5
X186.4Y-91.0
X188.8Y-87.6
X190.724Y-88.0
X193.35Y-88.0
X196.0Y-90.2
X197.025Y-88.025
X198.0Y-87.4
X201.0Y-95.0
X205.6Y-88.8
X205.6Y-90.8
T4
X180.2Y-88.4
X182.2Y-88.4
X184.2Y-88.4
X189.0Y-92.4
X189.0Y-94.4
T5
X181.5Y-68.1
X181.5Y-79.0
X204.1Y-68.1
X204.1Y-79.0
T3
G00X173.1Y-64.1
M15
G01X172.1Y-64.1
M16
G05
G00X173.1Y-83.0
M15
G01X172.1Y-83.0
M16
G05
G00X213.0Y-64.1
M15
G01X214.0Y-64.1
M16
G05
G00X213.0Y-83.0
M15
G01X214.0Y-83.0
M16
G05
M30
