%TF.GenerationSoftware,KiCad,Pcbnew,7.0.10-7.0.10~ubuntu20.04.1*%
%TF.CreationDate,2024-03-11T21:24:20+08:00*%
%TF.ProjectId,ESwitch,45537769-7463-4682-9e6b-696361645f70,rev?*%
%TF.SameCoordinates,Original*%
%TF.FileFunction,Copper,L1,Top*%
%TF.FilePolarity,Positive*%
%FSLAX46Y46*%
G04 Gerber Fmt 4.6, Leading zero omitted, Abs format (unit mm)*
G04 Created by KiCad (PCBNEW 7.0.10-7.0.10~ubuntu20.04.1) date 2024-03-11 21:24:20*
%MOMM*%
%LPD*%
G01*
G04 APERTURE LIST*
G04 Aperture macros list*
%AMRoundRect*
0 Rectangle with rounded corners*
0 $1 Rounding radius*
0 $2 $3 $4 $5 $6 $7 $8 $9 X,Y pos of 4 corners*
0 Add a 4 corners polygon primitive as box body*
4,1,4,$2,$3,$4,$5,$6,$7,$8,$9,$2,$3,0*
0 Add four circle primitives for the rounded corners*
1,1,$1+$1,$2,$3*
1,1,$1+$1,$4,$5*
1,1,$1+$1,$6,$7*
1,1,$1+$1,$8,$9*
0 Add four rect primitives between the rounded corners*
20,1,$1+$1,$2,$3,$4,$5,0*
20,1,$1+$1,$4,$5,$6,$7,0*
20,1,$1+$1,$6,$7,$8,$9,0*
20,1,$1+$1,$8,$9,$2,$3,0*%
%AMFreePoly0*
4,1,15,0.305000,-0.510000,0.055000,-0.510000,0.055000,-4.010000,0.053536,-4.013536,0.050000,-4.015000,-3.860000,-4.015000,-3.863536,-4.013536,-3.865000,-4.010000,-3.865000,-0.200000,-3.863536,-0.196464,-3.860000,-0.195000,-0.305000,-0.195000,-0.305000,0.510000,0.305000,0.510000,0.305000,-0.510000,0.305000,-0.510000,$1*%
%AMFreePoly1*
4,1,19,0.550000,-0.750000,0.000000,-0.750000,0.000000,-0.744911,-0.071157,-0.744911,-0.207708,-0.704816,-0.327430,-0.627875,-0.420627,-0.520320,-0.479746,-0.390866,-0.500000,-0.250000,-0.500000,0.250000,-0.479746,0.390866,-0.420627,0.520320,-0.327430,0.627875,-0.207708,0.704816,-0.071157,0.744911,0.000000,0.744911,0.000000,0.750000,0.550000,0.750000,0.550000,-0.750000,0.550000,-0.750000,
$1*%
%AMFreePoly2*
4,1,19,0.000000,0.744911,0.071157,0.744911,0.207708,0.704816,0.327430,0.627875,0.420627,0.520320,0.479746,0.390866,0.500000,0.250000,0.500000,-0.250000,0.479746,-0.390866,0.420627,-0.520320,0.327430,-0.627875,0.207708,-0.704816,0.071157,-0.744911,0.000000,-0.744911,0.000000,-0.750000,-0.550000,-0.750000,-0.550000,0.750000,0.000000,0.750000,0.000000,0.744911,0.000000,0.744911,
$1*%
%AMFreePoly3*
4,1,19,0.500000,-0.750000,0.000000,-0.750000,0.000000,-0.744911,-0.071157,-0.744911,-0.207708,-0.704816,-0.327430,-0.627875,-0.420627,-0.520320,-0.479746,-0.390866,-0.500000,-0.250000,-0.500000,0.250000,-0.479746,0.390866,-0.420627,0.520320,-0.327430,0.627875,-0.207708,0.704816,-0.071157,0.744911,0.000000,0.744911,0.000000,0.750000,0.500000,0.750000,0.500000,-0.750000,0.500000,-0.750000,
$1*%
%AMFreePoly4*
4,1,19,0.000000,0.744911,0.071157,0.744911,0.207708,0.704816,0.327430,0.627875,0.420627,0.520320,0.479746,0.390866,0.500000,0.250000,0.500000,-0.250000,0.479746,-0.390866,0.420627,-0.520320,0.327430,-0.627875,0.207708,-0.704816,0.071157,-0.744911,0.000000,-0.744911,0.000000,-0.750000,-0.500000,-0.750000,-0.500000,0.750000,0.000000,0.750000,0.000000,0.744911,0.000000,0.744911,
$1*%
G04 Aperture macros list end*
%TA.AperFunction,ComponentPad*%
%ADD10R,1.350000X1.350000*%
%TD*%
%TA.AperFunction,ComponentPad*%
%ADD11O,1.350000X1.350000*%
%TD*%
%TA.AperFunction,SMDPad,CuDef*%
%ADD12R,1.400000X0.300000*%
%TD*%
%TA.AperFunction,SMDPad,CuDef*%
%ADD13R,1.270000X0.610000*%
%TD*%
%TA.AperFunction,SMDPad,CuDef*%
%ADD14FreePoly0,90.000000*%
%TD*%
%TA.AperFunction,SMDPad,CuDef*%
%ADD15R,1.020000X0.610000*%
%TD*%
%TA.AperFunction,SMDPad,CuDef*%
%ADD16RoundRect,0.250000X0.262500X0.450000X-0.262500X0.450000X-0.262500X-0.450000X0.262500X-0.450000X0*%
%TD*%
%TA.AperFunction,SMDPad,CuDef*%
%ADD17RoundRect,0.250000X-0.250000X-0.475000X0.250000X-0.475000X0.250000X0.475000X-0.250000X0.475000X0*%
%TD*%
%TA.AperFunction,SMDPad,CuDef*%
%ADD18RoundRect,0.250000X0.250000X0.475000X-0.250000X0.475000X-0.250000X-0.475000X0.250000X-0.475000X0*%
%TD*%
%TA.AperFunction,SMDPad,CuDef*%
%ADD19FreePoly1,90.000000*%
%TD*%
%TA.AperFunction,SMDPad,CuDef*%
%ADD20R,1.500000X1.000000*%
%TD*%
%TA.AperFunction,SMDPad,CuDef*%
%ADD21FreePoly2,90.000000*%
%TD*%
%TA.AperFunction,SMDPad,CuDef*%
%ADD22FreePoly3,90.000000*%
%TD*%
%TA.AperFunction,SMDPad,CuDef*%
%ADD23FreePoly4,90.000000*%
%TD*%
%TA.AperFunction,SMDPad,CuDef*%
%ADD24RoundRect,0.250000X-0.262500X-0.450000X0.262500X-0.450000X0.262500X0.450000X-0.262500X0.450000X0*%
%TD*%
%TA.AperFunction,ComponentPad*%
%ADD25C,4.916000*%
%TD*%
%TA.AperFunction,ComponentPad*%
%ADD26R,4.916000X4.916000*%
%TD*%
%TA.AperFunction,ComponentPad*%
%ADD27O,2.600000X1.300000*%
%TD*%
%TA.AperFunction,SMDPad,CuDef*%
%ADD28R,0.500000X1.000000*%
%TD*%
%TA.AperFunction,SMDPad,CuDef*%
%ADD29R,0.800000X0.500000*%
%TD*%
%TA.AperFunction,ViaPad*%
%ADD30C,0.600000*%
%TD*%
%TA.AperFunction,ViaPad*%
%ADD31C,0.800000*%
%TD*%
%TA.AperFunction,Conductor*%
%ADD32C,0.250000*%
%TD*%
G04 APERTURE END LIST*
%TA.AperFunction,EtchedComponent*%
%TO.C,JP2*%
G36*
X187300000Y-88500000D02*
G01*
X186700000Y-88500000D01*
X186700000Y-88000000D01*
X187300000Y-88000000D01*
X187300000Y-88500000D01*
G37*
%TD.AperFunction*%
%TA.AperFunction,EtchedComponent*%
%TO.C,JP1*%
G36*
X193700000Y-94250000D02*
G01*
X193100000Y-94250000D01*
X193100000Y-93750000D01*
X193700000Y-93750000D01*
X193700000Y-94250000D01*
G37*
%TD.AperFunction*%
%TD*%
D10*
%TO.P,J3,1,Pin_1*%
%TO.N,Net-(J3-Pin_1)*%
X189000000Y-94400000D03*
D11*
%TO.P,J3,2,Pin_2*%
%TO.N,GND*%
X189000000Y-92400000D03*
%TD*%
D12*
%TO.P,U1,1,SENSE*%
%TO.N,Net-(U1-SENSE)*%
X200400000Y-93000000D03*
%TO.P,U1,2,VIN*%
%TO.N,+BATT*%
X200400000Y-92500000D03*
%TO.P,U1,3,OVP*%
%TO.N,Net-(U1-OVP)*%
X200400000Y-92000000D03*
%TO.P,U1,4,UVLO*%
%TO.N,Net-(U1-UVLO)*%
X200400000Y-91500000D03*
%TO.P,U1,5,EN*%
%TO.N,Net-(JP2-C)*%
X200400000Y-91000000D03*
%TO.P,U1,6,GND*%
%TO.N,GND*%
X196000000Y-91000000D03*
%TO.P,U1,7,TIMER*%
%TO.N,Net-(U1-TIMER)*%
X196000000Y-91500000D03*
%TO.P,U1,8,~{PGD}*%
%TO.N,Net-(J3-Pin_1)*%
X196000000Y-92000000D03*
%TO.P,U1,9,OUT*%
%TO.N,Net-(J2-POS)*%
X196000000Y-92500000D03*
%TO.P,U1,10,GATE*%
%TO.N,Net-(Q1-G)*%
X196000000Y-93000000D03*
%TD*%
D13*
%TO.P,Q1,1,S*%
%TO.N,Net-(J2-POS)*%
X195498000Y-80905000D03*
%TO.P,Q1,2,S*%
X195498000Y-79635000D03*
%TO.P,Q1,3,S*%
X195498000Y-78365000D03*
%TO.P,Q1,4,G*%
%TO.N,Net-(Q1-G)*%
X195498000Y-77095000D03*
D14*
%TO.P,Q1,5,D*%
%TO.N,+BATT*%
X190033000Y-77095000D03*
D15*
%TO.P,Q1,6,D*%
X190033000Y-78365000D03*
%TO.P,Q1,7,D*%
X190033000Y-79635000D03*
%TO.P,Q1,8,D*%
X190033000Y-80905000D03*
%TD*%
D16*
%TO.P,R6,1*%
%TO.N,+BATT*%
X204312500Y-95000000D03*
%TO.P,R6,2*%
%TO.N,Net-(U1-SENSE)*%
X202487500Y-95000000D03*
%TD*%
D17*
%TO.P,C1,1*%
%TO.N,+BATT*%
X197850000Y-95000000D03*
%TO.P,C1,2*%
%TO.N,GND*%
X199750000Y-95000000D03*
%TD*%
D18*
%TO.P,C2,1*%
%TO.N,Net-(U1-TIMER)*%
X193350000Y-89200000D03*
%TO.P,C2,2*%
%TO.N,GND*%
X191450000Y-89200000D03*
%TD*%
D19*
%TO.P,JP2,1,A*%
%TO.N,Net-(JP2-A)*%
X187000000Y-88900000D03*
D20*
%TO.P,JP2,2,C*%
%TO.N,Net-(JP2-C)*%
X187000000Y-87600000D03*
D21*
%TO.P,JP2,3,B*%
%TO.N,Net-(J4-Pin_2)*%
X187000000Y-86300000D03*
%TD*%
D22*
%TO.P,JP1,1,A*%
%TO.N,Net-(J3-Pin_1)*%
X193400000Y-94650000D03*
D23*
%TO.P,JP1,2,B*%
%TO.N,Net-(JP1-B)*%
X193400000Y-93350000D03*
%TD*%
D16*
%TO.P,R1,1*%
%TO.N,+BATT*%
X204312500Y-92800000D03*
%TO.P,R1,2*%
%TO.N,Net-(U1-OVP)*%
X202487500Y-92800000D03*
%TD*%
D24*
%TO.P,R7,1*%
%TO.N,+BATT*%
X191487500Y-91200000D03*
%TO.P,R7,2*%
%TO.N,Net-(JP1-B)*%
X193312500Y-91200000D03*
%TD*%
D16*
%TO.P,R3,1*%
%TO.N,+BATT*%
X204312500Y-86800000D03*
%TO.P,R3,2*%
%TO.N,Net-(U1-UVLO)*%
X202487500Y-86800000D03*
%TD*%
D24*
%TO.P,R2,1*%
%TO.N,Net-(U1-OVP)*%
X202487500Y-90800000D03*
%TO.P,R2,2*%
%TO.N,GND*%
X204312500Y-90800000D03*
%TD*%
D25*
%TO.P,J1,N,NEG*%
%TO.N,GND*%
X181500000Y-68100000D03*
D26*
%TO.P,J1,P,POS*%
%TO.N,+BATT*%
X181500000Y-79000000D03*
D27*
%TO.P,J1,S1*%
%TO.N,N/C*%
X172600000Y-83000000D03*
%TO.P,J1,S2*%
X172600000Y-64100000D03*
%TD*%
D28*
%TO.P,SW1,1,A*%
%TO.N,+BATT*%
X180700000Y-91100000D03*
%TO.P,SW1,2,B*%
%TO.N,Net-(JP2-A)*%
X183700000Y-91100000D03*
%TO.P,SW1,3,C*%
%TO.N,GND*%
X185200000Y-91100000D03*
D29*
%TO.P,SW1,4*%
X179500000Y-91900000D03*
X179500000Y-94000000D03*
X186400000Y-91900000D03*
X186400000Y-94000000D03*
%TD*%
D10*
%TO.P,J4,1,Pin_1*%
%TO.N,+BATT*%
X180200000Y-88400000D03*
D11*
%TO.P,J4,2,Pin_2*%
%TO.N,Net-(J4-Pin_2)*%
X182200000Y-88400000D03*
%TO.P,J4,3,Pin_3*%
%TO.N,GND*%
X184200000Y-88400000D03*
%TD*%
D25*
%TO.P,J2,N,NEG*%
%TO.N,GND*%
X204100000Y-68100000D03*
D26*
%TO.P,J2,P,POS*%
%TO.N,Net-(J2-POS)*%
X204100000Y-79000000D03*
D27*
%TO.P,J2,S1*%
%TO.N,N/C*%
X213500000Y-83000000D03*
%TO.P,J2,S2*%
X213500000Y-64100000D03*
%TD*%
D24*
%TO.P,R4,1*%
%TO.N,Net-(U1-UVLO)*%
X202487500Y-88800000D03*
%TO.P,R4,2*%
%TO.N,GND*%
X204312500Y-88800000D03*
%TD*%
D30*
%TO.N,+BATT*%
X191800000Y-78600000D03*
X193400000Y-80200000D03*
X191000000Y-80200000D03*
X191800000Y-77800000D03*
X191800000Y-80200000D03*
X191000000Y-79400000D03*
X192600000Y-79400000D03*
X192600000Y-77800000D03*
X192600000Y-78600000D03*
X191000000Y-78600000D03*
X193400000Y-79400000D03*
X193400000Y-78600000D03*
X193400000Y-77800000D03*
X192600000Y-80200000D03*
X191800000Y-79400000D03*
X191000000Y-77800000D03*
D31*
%TO.N,GND*%
X190724500Y-88000000D03*
X205600000Y-88800000D03*
X186400000Y-91000000D03*
X205600000Y-90800000D03*
X185250000Y-94500000D03*
X179500000Y-93000000D03*
X201000000Y-95000000D03*
X196000000Y-90200000D03*
%TO.N,Net-(U1-TIMER)*%
X193350000Y-88000000D03*
X197025000Y-88025000D03*
%TO.N,Net-(JP2-C)*%
X198000000Y-87400000D03*
X188800000Y-87600000D03*
%TD*%
D32*
%TO.N,+BATT*%
X180250000Y-91550000D02*
X180250000Y-93750000D01*
X186962500Y-92750000D02*
X188512500Y-91200000D01*
X206400000Y-87800000D02*
X206400000Y-91600000D01*
X204312500Y-92800000D02*
X204312500Y-94000000D01*
X206400000Y-91600000D02*
X205200000Y-92800000D01*
X188512500Y-91200000D02*
X191487500Y-91200000D01*
X180250000Y-93750000D02*
X182000000Y-95500000D01*
X200400000Y-92500000D02*
X201400000Y-92500000D01*
X201650000Y-93495100D02*
X202129900Y-93975000D01*
X197850000Y-94050000D02*
X199400000Y-92500000D01*
X205200000Y-92800000D02*
X204312500Y-92800000D01*
X180700000Y-91100000D02*
X180200000Y-90600000D01*
X185862500Y-92750000D02*
X186962500Y-92750000D01*
X181500000Y-79000000D02*
X180200000Y-80300000D01*
X180200000Y-90600000D02*
X180200000Y-88400000D01*
X205400000Y-86800000D02*
X206400000Y-87800000D01*
X180200000Y-80300000D02*
X180200000Y-88400000D01*
X181275000Y-91925000D02*
X185037500Y-91925000D01*
X197850000Y-95000000D02*
X197850000Y-94050000D01*
X201650000Y-92750000D02*
X201650000Y-93495100D01*
X180700000Y-91350000D02*
X181275000Y-91925000D01*
X182000000Y-95500000D02*
X197350000Y-95500000D01*
X199400000Y-92500000D02*
X200400000Y-92500000D01*
X202129900Y-93975000D02*
X204287500Y-93975000D01*
X204287500Y-93975000D02*
X204312500Y-94000000D01*
X204312500Y-94000000D02*
X204312500Y-95000000D01*
X197350000Y-95500000D02*
X197850000Y-95000000D01*
X201400000Y-92500000D02*
X201650000Y-92750000D01*
X204312500Y-86800000D02*
X205400000Y-86800000D01*
X180700000Y-91100000D02*
X180700000Y-91350000D01*
X185037500Y-91925000D02*
X185862500Y-92750000D01*
X180700000Y-91100000D02*
X180250000Y-91550000D01*
%TO.N,GND*%
X179500000Y-93000000D02*
X179500000Y-91900000D01*
X196000000Y-91000000D02*
X196000000Y-90200000D01*
X179500000Y-94000000D02*
X179500000Y-93000000D01*
X190724500Y-88000000D02*
X191450000Y-88725500D01*
X186400000Y-94000000D02*
X185750000Y-94000000D01*
X186400000Y-91000000D02*
X185300000Y-91000000D01*
X191450000Y-88725500D02*
X191450000Y-89200000D01*
X186400000Y-91000000D02*
X186400000Y-91900000D01*
X204312500Y-88800000D02*
X205600000Y-88800000D01*
X185300000Y-91000000D02*
X185200000Y-91100000D01*
X204312500Y-90800000D02*
X205600000Y-90800000D01*
X185750000Y-94000000D02*
X185250000Y-94500000D01*
X199750000Y-95000000D02*
X201000000Y-95000000D01*
%TO.N,Net-(U1-TIMER)*%
X197000000Y-91500000D02*
X196000000Y-91500000D01*
X193350000Y-88000000D02*
X193350000Y-89200000D01*
X197025000Y-88025000D02*
X197025000Y-91475000D01*
X197025000Y-91475000D02*
X197000000Y-91500000D01*
%TO.N,Net-(J2-POS)*%
X194850000Y-92350000D02*
X195000000Y-92500000D01*
X195600000Y-81007000D02*
X195600000Y-89200000D01*
X195600000Y-89200000D02*
X194850000Y-89950000D01*
X195498000Y-80905000D02*
X195600000Y-81007000D01*
X194850000Y-89950000D02*
X194850000Y-92350000D01*
X195000000Y-92500000D02*
X196000000Y-92500000D01*
%TO.N,Net-(J3-Pin_1)*%
X197200000Y-92200000D02*
X197200000Y-93800000D01*
X197000000Y-92000000D02*
X197200000Y-92200000D01*
X196350000Y-94650000D02*
X193400000Y-94650000D01*
X196000000Y-92000000D02*
X197000000Y-92000000D01*
X193150000Y-94400000D02*
X193400000Y-94650000D01*
X197200000Y-93800000D02*
X196350000Y-94650000D01*
X189000000Y-94400000D02*
X193150000Y-94400000D01*
%TO.N,Net-(JP1-B)*%
X193400000Y-91287500D02*
X193400000Y-93350000D01*
X193312500Y-91200000D02*
X193400000Y-91287500D01*
%TO.N,Net-(Q1-G)*%
X194400000Y-82100000D02*
X195000000Y-82700000D01*
X195000000Y-89000000D02*
X194400000Y-89600000D01*
X194400000Y-92600000D02*
X194800000Y-93000000D01*
X194400000Y-89600000D02*
X194400000Y-92600000D01*
X194655000Y-77095000D02*
X194400000Y-77350000D01*
X195498000Y-77095000D02*
X194655000Y-77095000D01*
X194800000Y-93000000D02*
X196000000Y-93000000D01*
X194400000Y-77350000D02*
X194400000Y-82100000D01*
X195000000Y-82700000D02*
X195000000Y-89000000D01*
%TO.N,Net-(U1-OVP)*%
X201687500Y-92000000D02*
X202487500Y-92800000D01*
X200400000Y-92000000D02*
X201687500Y-92000000D01*
X202487500Y-90800000D02*
X202487500Y-92800000D01*
%TO.N,Net-(U1-UVLO)*%
X202487500Y-86800000D02*
X202487500Y-88800000D01*
X201650000Y-89637500D02*
X202487500Y-88800000D01*
X200400000Y-91500000D02*
X201400000Y-91500000D01*
X201400000Y-91500000D02*
X201650000Y-91250000D01*
X201650000Y-91250000D02*
X201650000Y-89637500D01*
%TO.N,Net-(J4-Pin_2)*%
X184300000Y-86300000D02*
X182200000Y-88400000D01*
X187000000Y-86300000D02*
X184300000Y-86300000D01*
%TO.N,Net-(U1-SENSE)*%
X200400000Y-93000000D02*
X202400000Y-95000000D01*
X202400000Y-95000000D02*
X202487500Y-95000000D01*
%TO.N,Net-(JP2-A)*%
X186000000Y-88900000D02*
X183800000Y-91100000D01*
X187000000Y-88900000D02*
X186000000Y-88900000D01*
X183800000Y-91100000D02*
X183700000Y-91100000D01*
%TO.N,Net-(JP2-C)*%
X187000000Y-87600000D02*
X188800000Y-87600000D01*
X198887500Y-87400000D02*
X200400000Y-88912500D01*
X200400000Y-91000000D02*
X200400000Y-88912500D01*
X198000000Y-87400000D02*
X198887500Y-87400000D01*
%TD*%
%TA.AperFunction,Conductor*%
%TO.N,Net-(J2-POS)*%
G36*
X206693039Y-76269685D02*
G01*
X206738794Y-76322489D01*
X206750000Y-76374000D01*
X206750000Y-81626000D01*
X206730315Y-81693039D01*
X206677511Y-81738794D01*
X206626000Y-81750000D01*
X194874000Y-81750000D01*
X194806961Y-81730315D01*
X194761206Y-81677511D01*
X194750000Y-81626000D01*
X194750000Y-77874000D01*
X194769685Y-77806961D01*
X194822489Y-77761206D01*
X194874000Y-77750000D01*
X196499999Y-77750000D01*
X196500000Y-77750000D01*
X197712819Y-76294616D01*
X197770858Y-76255718D01*
X197808078Y-76250000D01*
X206626000Y-76250000D01*
X206693039Y-76269685D01*
G37*
%TD.AperFunction*%
%TD*%
%TA.AperFunction,Conductor*%
%TO.N,+BATT*%
G36*
X190443039Y-76269685D02*
G01*
X190488794Y-76322489D01*
X190500000Y-76374000D01*
X190500000Y-81626000D01*
X190480315Y-81693039D01*
X190427511Y-81738794D01*
X190376000Y-81750000D01*
X178874000Y-81750000D01*
X178806961Y-81730315D01*
X178761206Y-81677511D01*
X178750000Y-81626000D01*
X178750000Y-76374000D01*
X178769685Y-76306961D01*
X178822489Y-76261206D01*
X178874000Y-76250000D01*
X190376000Y-76250000D01*
X190443039Y-76269685D01*
G37*
%TD.AperFunction*%
%TD*%
%TA.AperFunction,Conductor*%
%TO.N,GND*%
G36*
X206693039Y-65519685D02*
G01*
X206738794Y-65572489D01*
X206750000Y-65624000D01*
X206750000Y-70626000D01*
X206730315Y-70693039D01*
X206677511Y-70738794D01*
X206626000Y-70750000D01*
X178874000Y-70750000D01*
X178806961Y-70730315D01*
X178761206Y-70677511D01*
X178750000Y-70626000D01*
X178750000Y-65624000D01*
X178769685Y-65556961D01*
X178822489Y-65511206D01*
X178874000Y-65500000D01*
X206626000Y-65500000D01*
X206693039Y-65519685D01*
G37*
%TD.AperFunction*%
%TD*%
M02*
